<svg xmlns="http://www.w3.org/2000/svg" xmlns:xlink="http://www.w3.org/1999/xlink" width="250" zoomAndPan="magnify" viewBox="0 0 187.5 147.749995" height="197" preserveAspectRatio="xMidYMid meet" version="1.0"><path fill="#0096d6" d="M 2.523438 58.882812 C 2.320312 63.367188 2.355469 68.179688 2.621094 73.3125 L 2.621094 72.132812 C 2.523438 68.003906 2.449219 63.601562 2.523438 58.882812 Z M 2.523438 58.882812 " fill-opacity="1" fill-rule="nonzero"/><path fill="#0096d6" d="M 60.726562 45.84375 C 57.480469 45.84375 56.539062 47.121094 54.851562 53.101562 L 48.597656 75.210938 L 72.097656 75.46875 L 66.363281 53.199219 C 64.785156 47.207031 63.984375 45.875 60.726562 45.84375 Z M 60.726562 45.84375 " fill-opacity="1" fill-rule="nonzero"/><path fill="#0096d6" d="M 124.925781 144.902344 C 167.058594 143.820312 184.945312 128.160156 185.519531 75.367188 C 186.144531 19.664062 166.042969 3.679688 119.339844 3.160156 L 70.929688 2.617188 C 28.15625 2.144531 4.492188 15.792969 2.523438 58.773438 L 2.609375 72.144531 C 3.035156 87.707031 4.710938 99.269531 8.679688 107.71875 C 14.847656 120.871094 26.511719 126.515625 47.632812 128.191406 L 47.351562 144.058594 C 47.351562 144.058594 122.835938 144.957031 124.925781 144.902344 Z M 148.296875 34.71875 C 149.265625 33.796875 150.558594 33.289062 151.902344 33.3125 C 153.238281 33.335938 154.515625 33.886719 155.453125 34.84375 C 156.390625 35.800781 156.914062 37.085938 156.910156 38.425781 C 156.902344 39.765625 156.371094 41.050781 155.425781 42 C 154.453125 42.925781 153.152344 43.4375 151.808594 43.421875 C 150.460938 43.410156 149.175781 42.871094 148.21875 41.925781 C 147.742188 41.449219 147.367188 40.886719 147.113281 40.265625 C 146.859375 39.644531 146.730469 38.976562 146.738281 38.304688 C 146.746094 37.636719 146.886719 36.972656 147.152344 36.355469 C 147.421875 35.738281 147.808594 35.183594 148.296875 34.71875 Z M 146.371094 57.195312 C 146.371094 53.433594 147.34375 52.503906 151 52.546875 L 152.332031 52.546875 C 155.988281 52.546875 156.898438 53.53125 156.855469 57.292969 L 156.378906 99.714844 C 156.378906 103.476562 155.414062 104.40625 151.746094 104.363281 L 150.425781 104.363281 C 146.757812 104.363281 145.859375 103.371094 145.894531 99.617188 Z M 93.589844 36.980469 C 93.589844 33.378906 94.550781 32.492188 98.21875 32.523438 L 99.441406 32.523438 C 103.097656 32.523438 104.007812 33.476562 103.964844 37.078125 L 103.726562 58.40625 C 106.53125 54.082031 111.539062 51.992188 118.757812 52.070312 C 132.910156 52.230469 139.84375 59.640625 139.683594 74.132812 L 139.585938 82.785156 C 139.421875 97.300781 131.609375 104.125 116.039062 103.953125 C 101.488281 103.792969 92.917969 96.589844 93.078125 82.320312 Z M 45.980469 84.851562 L 42.019531 98.632812 C 40.859375 102.179688 39.855469 103.078125 36.066406 103.035156 L 34.648438 103.035156 C 30.882812 103.035156 30.320312 102.070312 31.230469 98.523438 L 44.214844 53.195312 C 46.121094 46.597656 48.101562 42.140625 50.167969 39.824219 C 52.332031 37.414062 55.804688 36.222656 60.792969 36.289062 C 65.78125 36.355469 69.222656 37.597656 71.234375 40.0625 C 73.246094 42.53125 75.128906 46.921875 76.882812 53.550781 L 88.890625 99.164062 C 89.769531 102.730469 89.152344 103.640625 85.386719 103.597656 L 84 103.597656 C 80.234375 103.597656 79.230469 102.625 78.148438 99.054688 L 74.535156 85.175781 Z M 45.980469 84.851562 " fill-opacity="1" fill-rule="nonzero"/><path fill="#0096d6" d="M 116.246094 95.183594 C 126.316406 95.300781 129 91.765625 129.097656 83.222656 L 129.195312 74.480469 C 129.292969 65.9375 126.480469 62.238281 116.613281 62.128906 C 106.746094 62.023438 103.628906 65.644531 103.550781 74.191406 L 103.453125 82.941406 C 103.359375 91.386719 106.171875 95.074219 116.246094 95.183594 Z M 116.246094 95.183594 " fill-opacity="1" fill-rule="nonzero"/></svg>