<svg xmlns="http://www.w3.org/2000/svg" xmlns:xlink="http://www.w3.org/1999/xlink" width="250" zoomAndPan="magnify" viewBox="0 0 187.5 81.749997" height="109" preserveAspectRatio="xMidYMid meet" version="1.0"><defs><clipPath id="97aacd8f32"><path d="M 60 64 L 75 64 L 75 81.5 L 60 81.5 Z M 60 64 " clip-rule="nonzero"/></clipPath><clipPath id="dc5be609b1"><path d="M 77 46 L 111 46 L 111 81.5 L 77 81.5 Z M 77 46 " clip-rule="nonzero"/></clipPath><clipPath id="48ecfda39b"><path d="M 0.429688 46 L 36 46 L 36 81.5 L 0.429688 81.5 Z M 0.429688 46 " clip-rule="nonzero"/></clipPath><clipPath id="79e1e32892"><path d="M 151 46 L 186.882812 46 L 186.882812 81.5 L 151 81.5 Z M 151 46 " clip-rule="nonzero"/></clipPath></defs><path fill="#ffffff" d="M 54.117188 66.125 C 52.851562 66.125 51.664062 66.613281 50.757812 67.496094 L 40.308594 77.824219 L 40.679688 78.191406 C 41.574219 79.074219 42.765625 79.5625 44.039062 79.5625 C 45.316406 79.5625 46.507812 79.074219 47.398438 78.191406 L 57.851562 67.863281 L 57.480469 67.496094 C 56.585938 66.613281 55.382812 66.125 54.117188 66.125 Z M 54.117188 66.125 " fill-opacity="1" fill-rule="nonzero"/><path fill="#ffffff" d="M 72.804688 47.589844 C 71.597656 47.589844 70.453125 48.058594 69.59375 48.902344 L 58.996094 59.371094 L 59.515625 59.886719 C 60.371094 60.730469 61.507812 61.199219 62.726562 61.199219 C 63.945312 61.199219 65.082031 60.730469 65.9375 59.886719 L 76.539062 49.417969 L 76.015625 48.902344 C 75.160156 48.058594 74.023438 47.589844 72.804688 47.589844 Z M 72.804688 47.589844 " fill-opacity="1" fill-rule="nonzero"/><g clip-path="url(#97aacd8f32)"><path fill="#ffffff" d="M 62.71875 64.1875 L 62.34375 64.554688 C 61.453125 65.4375 60.960938 66.613281 60.960938 67.871094 C 60.960938 69.128906 61.453125 70.296875 62.34375 71.1875 L 72.796875 81.511719 L 73.167969 81.140625 C 74.0625 80.261719 74.554688 79.082031 74.554688 77.824219 C 74.554688 76.566406 74.0625 75.390625 73.167969 74.507812 L 62.707031 64.1875 Z M 62.71875 64.1875 " fill-opacity="1" fill-rule="nonzero"/></g><path fill="#ffffff" d="M 44.03125 45.730469 L 43.660156 46.097656 C 42.765625 46.980469 42.273438 48.15625 42.273438 49.417969 C 42.273438 50.675781 42.765625 51.84375 43.660156 52.734375 L 54.109375 63.066406 L 54.480469 62.695312 C 55.375 61.816406 55.867188 60.636719 55.867188 59.378906 C 55.867188 58.121094 55.375 56.953125 54.480469 56.0625 Z M 44.03125 45.730469 " fill-opacity="1" fill-rule="nonzero"/><g clip-path="url(#dc5be609b1)"><path fill="#ffffff" d="M 77.597656 64.039062 C 77.597656 52.9375 85.816406 46.917969 94.230469 46.917969 C 102.640625 46.917969 111.566406 52.9375 110.21875 66.003906 L 82.734375 66.003906 C 83.574219 72.917969 88.894531 76.59375 95.316406 76.59375 C 99.234375 76.59375 102.828125 75.195312 105.265625 72.59375 L 107.964844 75.324219 C 104.949219 79 100.128906 81.160156 94.742188 81.160156 C 85.75 81.160156 77.597656 75.011719 77.597656 64.039062 Z M 105.472656 61.945312 C 105.089844 55.160156 99.886719 51.539062 94.292969 51.539062 C 88.699219 51.539062 83.574219 55.023438 82.734375 61.945312 Z M 105.472656 61.945312 " fill-opacity="1" fill-rule="nonzero"/></g><path fill="#ffffff" d="M 24.441406 37.605469 C 24.441406 37.605469 61.386719 5.734375 98.324219 0.746094 C 135.269531 -4.246094 138.769531 17.644531 138.769531 17.644531 C 138.769531 17.644531 126.363281 7.664062 109.992188 7.664062 C 86.382812 7.664062 63.332031 16.882812 24.441406 37.617188 Z M 24.441406 37.605469 " fill-opacity="1" fill-rule="nonzero"/><path fill="#ffffff" d="M 69.457031 24.648438 C 69.457031 24.648438 112.90625 6.507812 135.074219 21.476562 C 142.359375 26.660156 146.445312 32.421875 145.871094 41.347656 C 145.871094 41.347656 136.824219 8.511719 69.457031 24.640625 Z M 69.457031 24.648438 " fill-opacity="1" fill-rule="nonzero"/><g clip-path="url(#48ecfda39b)"><path fill="#ffffff" d="M 30.164062 47.550781 L 30.164062 52.082031 C 27.019531 48.902344 22.625 46.925781 17.769531 46.925781 C 8.191406 46.917969 0.429688 54.582031 0.429688 64.039062 C 0.429688 73.496094 8.191406 81.160156 17.769531 81.160156 C 22.625 81.160156 27.011719 79.183594 30.164062 76.003906 L 30.164062 80.535156 L 35.5625 80.535156 L 35.5625 47.550781 Z M 17.769531 76.28125 C 10.929688 76.28125 5.371094 70.804688 5.371094 64.039062 C 5.371094 57.273438 10.917969 51.796875 17.769531 51.796875 C 24.617188 51.796875 30.164062 57.273438 30.164062 64.039062 C 30.164062 70.804688 24.617188 76.28125 17.769531 76.28125 Z M 17.769531 76.28125 " fill-opacity="1" fill-rule="nonzero"/></g><g clip-path="url(#79e1e32892)"><path fill="#ffffff" d="M 181.492188 47.550781 L 181.492188 52.082031 C 178.347656 48.902344 173.957031 46.925781 169.097656 46.925781 C 159.523438 46.925781 151.761719 54.589844 151.761719 64.046875 C 151.761719 73.503906 159.523438 81.167969 169.097656 81.167969 C 173.957031 81.167969 178.339844 79.195312 181.492188 76.015625 L 181.492188 80.542969 L 186.890625 80.542969 L 186.890625 47.550781 Z M 169.097656 76.28125 C 162.257812 76.28125 156.703125 70.804688 156.703125 64.039062 C 156.703125 57.273438 162.25 51.796875 169.097656 51.796875 C 175.949219 51.796875 181.492188 57.273438 181.492188 64.039062 C 181.492188 70.804688 175.949219 76.28125 169.097656 76.28125 Z M 169.097656 76.28125 " fill-opacity="1" fill-rule="nonzero"/></g><path fill="#ffffff" d="M 145.785156 47.550781 L 145.785156 75.195312 C 145.785156 78.136719 143.367188 80.527344 140.386719 80.527344 L 140.386719 52.882812 C 140.386719 49.941406 142.808594 47.550781 145.785156 47.550781 Z M 145.785156 47.550781 " fill-opacity="1" fill-rule="nonzero"/><path fill="#ffffff" d="M 121.8125 50.628906 L 121.8125 47.679688 L 116.414062 47.679688 L 116.414062 80.65625 L 121.8125 80.65625 L 121.8125 62.871094 C 121.941406 60.03125 123.300781 52.074219 134.460938 52.074219 L 134.460938 47.292969 C 134.460938 47.292969 127.125 46.339844 121.8125 50.628906 Z M 121.8125 50.628906 " fill-opacity="1" fill-rule="nonzero"/></svg>