<svg xmlns="http://www.w3.org/2000/svg" xmlns:xlink="http://www.w3.org/1999/xlink" width="250" zoomAndPan="magnify" viewBox="0 0 187.5 68.999997" height="92" preserveAspectRatio="xMidYMid meet" version="1.0"><defs><clipPath id="9bfb95792a"><path d="M 0 21 L 21 21 L 21 68.90625 L 0 68.90625 Z M 0 21 " clip-rule="nonzero"/></clipPath><clipPath id="4c5b44e6cf"><path d="M 20 36 L 54 36 L 54 68.90625 L 20 68.90625 Z M 20 36 " clip-rule="nonzero"/></clipPath><clipPath id="8eeb4eb478"><path d="M 98 23 L 132 23 L 132 68.90625 L 98 68.90625 Z M 98 23 " clip-rule="nonzero"/></clipPath><clipPath id="639c576b6e"><path d="M 133 35 L 162 35 L 162 68.90625 L 133 68.90625 Z M 133 35 " clip-rule="nonzero"/></clipPath><clipPath id="34a4f4e403"><path d="M 55 35 L 70 35 L 70 68.90625 L 55 68.90625 Z M 55 35 " clip-rule="nonzero"/></clipPath><clipPath id="5efae23944"><path d="M 80 27 L 97 27 L 97 68.90625 L 80 68.90625 Z M 80 27 " clip-rule="nonzero"/></clipPath><clipPath id="fdc8619318"><path d="M 55 35 L 70 35 L 70 68.90625 L 55 68.90625 Z M 55 35 " clip-rule="nonzero"/></clipPath><clipPath id="53db4b4db8"><path d="M 163 35 L 178 35 L 178 68.90625 L 163 68.90625 Z M 163 35 " clip-rule="nonzero"/></clipPath><clipPath id="1ab1b7280f"><path d="M 0 0.277344 L 84 0.277344 L 84 13 L 0 13 Z M 0 0.277344 " clip-rule="nonzero"/></clipPath><clipPath id="b793cc8491"><path d="M 70 0.277344 L 76 0.277344 L 76 13 L 70 13 Z M 70 0.277344 " clip-rule="nonzero"/></clipPath><clipPath id="b5739601c6"><path d="M 179 60 L 186.863281 60 L 186.863281 68.90625 L 179 68.90625 Z M 179 60 " clip-rule="nonzero"/></clipPath></defs><path fill="#000000" d="M 76.976562 35.820312 L 76.976562 43.476562 C 76.976562 43.609375 76.929688 43.722656 76.835938 43.816406 C 76.746094 43.910156 76.632812 43.957031 76.5 43.957031 L 67.882812 43.957031 C 67.664062 43.957031 67.515625 43.851562 67.4375 43.644531 C 67.359375 43.4375 67.402344 43.257812 67.566406 43.113281 L 76.179688 35.457031 C 76.332031 35.320312 76.503906 35.292969 76.695312 35.378906 C 76.882812 35.464844 76.976562 35.613281 76.976562 35.820312 " fill-opacity="1" fill-rule="nonzero"/><g clip-path="url(#9bfb95792a)"><path fill="#000000" d="M 10.664062 36.234375 L 18.464844 36.234375 C 18.644531 36.234375 18.164062 38.933594 17.988281 38.933594 L 10.664062 38.933594 L 10.664062 66.578125 C 12.03125 66.757812 13.042969 66.9375 14.414062 67.058594 C 14.53125 67.058594 14.414062 68.316406 14.292969 68.316406 L 0.957031 68.316406 C 0.835938 68.316406 0.957031 67.058594 1.074219 67.058594 L 4.109375 66.578125 C 4.171875 64.65625 4.230469 62.800781 4.171875 60.160156 L 4.171875 38.933594 L 0 38.933594 C -0.117188 38.933594 -0.117188 37.433594 0 37.433594 L 4.171875 36.054688 L 4.171875 33.835938 C 4.171875 25.5625 10.007812 21.785156 16.441406 21.785156 C 17.726562 21.769531 18.996094 21.910156 20.246094 22.203125 C 20.546875 22.261719 20.425781 26.460938 20.246094 26.460938 L 19.953125 26.460938 C 18.757812 25.082031 17.09375 24.0625 15.246094 24.0625 C 12.746094 24.0625 10.660156 25.859375 10.660156 29.9375 Z M 10.664062 36.234375 " fill-opacity="1" fill-rule="nonzero"/></g><g clip-path="url(#4c5b44e6cf)"><path fill="#000000" d="M 23.289062 59.558594 L 23.289062 44.632812 C 23.289062 44.089844 23.230469 38.332031 23.230469 37.914062 C 22.214844 37.734375 21.4375 37.617188 20.132812 37.496094 C 19.953125 37.496094 20.070312 36.234375 20.25 36.234375 L 29.71875 36.234375 L 29.71875 57.765625 C 29.71875 62.859375 31.386719 65.261719 36.152344 65.261719 C 37.488281 65.285156 38.765625 65.027344 39.992188 64.492188 C 41.21875 63.960938 42.277344 63.195312 43.175781 62.199219 L 43.175781 44.992188 C 43.175781 44.453125 43.117188 38.332031 43.058594 37.914062 C 42.011719 37.722656 40.960938 37.582031 39.902344 37.496094 C 39.785156 37.496094 39.839844 36.234375 40.023438 36.234375 L 49.609375 36.234375 L 49.609375 58.003906 C 49.609375 58.542969 49.667969 64.957031 49.667969 65.5 C 51.632812 65.855469 51.8125 65.976562 53.597656 66.277344 C 53.71875 66.277344 53.71875 67.476562 53.539062 67.476562 C 49.785156 68.015625 47.824219 68.195312 44.011719 68.972656 C 43.890625 68.972656 43.535156 68.675781 43.535156 68.554688 L 43.476562 64 L 43.238281 64 C 41.089844 66.9375 36.382812 69.097656 33.054688 69.097656 C 27.21875 69.097656 23.285156 65.859375 23.285156 59.5625 " fill-opacity="1" fill-rule="nonzero"/></g><g clip-path="url(#8eeb4eb478)"><path fill="#000000" d="M 98.363281 67.058594 L 101.398438 66.574219 C 101.460938 64.660156 101.460938 62.738281 101.460938 60.21875 L 101.460938 33.539062 C 101.460938 30.957031 101.398438 30.167969 101.339844 27.523438 C 100.324219 27.1875 99.292969 26.910156 98.246094 26.6875 C 98.1875 26.6875 98.125 25.605469 98.304688 25.605469 C 102.535156 24.585938 103.664062 24.289062 107.234375 23.328125 C 107.296875 23.328125 107.773438 23.625 107.773438 23.746094 L 107.773438 40.488281 L 107.953125 40.488281 C 110.871094 37.554688 115.695312 35.574219 119.863281 35.574219 C 125.222656 35.574219 128.378906 37.972656 128.378906 44.566406 L 128.378906 66.636719 C 129.332031 66.816406 130.226562 66.933594 131.476562 67.054688 C 131.597656 67.054688 131.476562 68.3125 131.359375 68.3125 L 118.730469 68.3125 C 118.613281 68.3125 118.730469 67.054688 118.851562 67.054688 L 121.886719 66.574219 C 121.949219 64.476562 121.949219 62.734375 121.949219 60.21875 L 121.949219 46.128906 C 121.949219 41.449219 120.636719 39.292969 116.347656 39.292969 C 113.070312 39.292969 109.738281 40.488281 107.894531 42.226562 L 107.894531 66.636719 C 108.90625 66.816406 109.679688 66.933594 110.988281 67.054688 C 111.109375 67.054688 110.988281 68.3125 110.871094 68.3125 L 98.246094 68.3125 C 98.125 68.3125 98.246094 67.054688 98.363281 67.054688 " fill-opacity="1" fill-rule="nonzero"/></g><g clip-path="url(#639c576b6e)"><path fill="#000000" d="M 148.574219 69.097656 C 139.164062 69.097656 133.570312 62.5625 133.570312 52.726562 C 133.570312 42.414062 139.347656 35.519531 148.160156 35.519531 C 156.675781 35.519531 161.320312 41.089844 161.082031 50.625 L 139.9375 50.625 C 140.117188 59.980469 144.523438 64.71875 150.363281 64.71875 C 156.4375 64.71875 158.9375 62.5 160.84375 60.703125 C 161.140625 60.398438 161.203125 61.421875 161.023438 61.898438 C 159.652344 64.78125 155.304688 69.097656 148.578125 69.097656 M 139.9375 48.828125 L 154.292969 48.289062 C 154.292969 40.851562 152.152344 37.253906 147.976562 37.253906 C 143.804688 37.253906 140.296875 40.792969 139.9375 48.828125 " fill-opacity="1" fill-rule="nonzero"/></g><g clip-path="url(#34a4f4e403)"><path fill="#000000" d="M 65.621094 35.777344 C 65.621094 35.660156 64.972656 35.335938 64.914062 35.335938 C 61.277344 36.292969 60.265625 36.59375 56.039062 37.613281 C 55.859375 37.671875 55.917969 38.753906 55.980469 38.753906 C 57.035156 38.949219 58.066406 39.226562 59.078125 39.59375 C 59.132812 42.230469 59.195312 44.6875 59.195312 47.265625 L 59.195312 60.222656 C 59.195312 62.742188 59.195312 64.71875 59.132812 66.636719 L 56.097656 67.117188 C 55.980469 67.117188 55.859375 68.375 55.980469 68.375 L 69.199219 68.375 C 69.316406 68.375 69.4375 67.117188 69.316406 67.117188 C 68.066406 66.9375 66.640625 66.816406 65.625 66.636719 Z M 65.621094 35.777344 " fill-opacity="1" fill-rule="nonzero"/></g><g clip-path="url(#5efae23944)"><path fill="#000000" d="M 96.101562 63.9375 C 94.507812 64.988281 92.761719 65.546875 90.859375 65.617188 C 87.464844 65.617188 86.332031 63.515625 86.332031 60.339844 L 86.332031 38.933594 L 95.445312 38.933594 C 95.742188 38.933594 96.101562 36.234375 95.804688 36.234375 L 86.394531 36.234375 C 86.394531 35.757812 86.570312 28.28125 86.570312 27.863281 C 86.570312 27.5625 85.5 27.324219 85.261719 27.5625 C 84.9375 27.921875 82.699219 29.878906 80.332031 31.863281 C 80.125 32.039062 80.023438 32.265625 80.023438 32.535156 L 80.023438 60.820312 C 80.023438 65.855469 81.984375 69.09375 88.003906 69.09375 C 91.929688 69.09375 95.089844 67.234375 96.21875 65.253906 C 96.339844 65.015625 96.21875 63.875 96.101562 63.9375 " fill-opacity="1" fill-rule="nonzero"/></g><path fill="#000000" d="M 76.976562 35.820312 L 76.976562 43.476562 C 76.976562 43.609375 76.929688 43.722656 76.835938 43.816406 C 76.746094 43.910156 76.632812 43.957031 76.5 43.957031 L 67.882812 43.957031 C 67.664062 43.957031 67.515625 43.851562 67.4375 43.644531 C 67.359375 43.4375 67.402344 43.257812 67.566406 43.113281 L 76.179688 35.457031 C 76.332031 35.320312 76.503906 35.292969 76.695312 35.378906 C 76.882812 35.464844 76.976562 35.613281 76.976562 35.820312 " fill-opacity="1" fill-rule="nonzero"/><g clip-path="url(#fdc8619318)"><path fill="#000000" d="M 65.621094 35.777344 C 65.621094 35.660156 64.972656 35.335938 64.914062 35.335938 C 61.277344 36.292969 60.265625 36.59375 56.039062 37.613281 C 55.859375 37.671875 55.917969 38.753906 55.980469 38.753906 C 57.035156 38.949219 58.066406 39.226562 59.078125 39.59375 C 59.132812 42.230469 59.195312 44.6875 59.195312 47.265625 L 59.195312 60.222656 C 59.195312 62.742188 59.195312 64.71875 59.132812 66.636719 L 56.097656 67.117188 C 55.980469 67.117188 55.859375 68.375 55.980469 68.375 L 69.199219 68.375 C 69.316406 68.375 69.4375 67.117188 69.316406 67.117188 C 68.066406 66.9375 66.640625 66.816406 65.625 66.636719 Z M 65.621094 35.777344 " fill-opacity="1" fill-rule="nonzero"/></g><path fill="#000000" d="M 184.953125 35.820312 L 184.953125 43.476562 C 184.953125 43.609375 184.90625 43.722656 184.8125 43.816406 C 184.722656 43.910156 184.609375 43.957031 184.476562 43.957031 L 175.859375 43.957031 C 175.640625 43.957031 175.492188 43.851562 175.414062 43.644531 C 175.335938 43.4375 175.378906 43.257812 175.542969 43.113281 L 184.15625 35.457031 C 184.3125 35.320312 184.480469 35.292969 184.671875 35.378906 C 184.859375 35.464844 184.953125 35.613281 184.953125 35.820312 " fill-opacity="1" fill-rule="nonzero"/><g clip-path="url(#53db4b4db8)"><path fill="#000000" d="M 173.597656 35.777344 C 173.597656 35.660156 172.949219 35.335938 172.890625 35.335938 C 169.253906 36.292969 168.242188 36.59375 164.015625 37.613281 C 163.835938 37.671875 163.894531 38.753906 163.957031 38.753906 C 165.011719 38.949219 166.042969 39.226562 167.054688 39.59375 C 167.113281 42.230469 167.171875 44.6875 167.171875 47.265625 L 167.171875 60.222656 C 167.171875 62.742188 167.171875 64.71875 167.113281 66.636719 L 164.078125 67.117188 C 163.957031 67.117188 163.839844 68.375 163.957031 68.375 L 177.175781 68.375 C 177.292969 68.375 177.414062 67.117188 177.292969 67.117188 C 176.042969 66.9375 174.617188 66.816406 173.601562 66.636719 Z M 173.597656 35.777344 " fill-opacity="1" fill-rule="nonzero"/></g><g clip-path="url(#1ab1b7280f)"><path fill="#000000" d="M 0.816406 12.410156 L 5.03125 12.410156 C 5.882812 12.425781 6.699219 12.257812 7.476562 11.910156 C 8.019531 11.6875 8.449219 11.332031 8.777344 10.84375 C 9.101562 10.355469 9.261719 9.816406 9.261719 9.230469 C 9.261719 7.34375 7.523438 6.613281 5.890625 6.417969 L 5.890625 6.328125 C 7.539062 5.945312 8.445312 4.851562 8.445312 3.589844 C 8.445312 1.960938 7.054688 1.003906 4.683594 1.003906 L 0.875 1.003906 C 0.839844 1.125 0.835938 1.246094 0.859375 1.371094 L 1.871094 1.488281 L 1.871094 9.488281 C 1.871094 10.144531 1.871094 11.316406 1.84375 11.90625 L 0.847656 12.03125 C 0.804688 12.15625 0.796875 12.28125 0.816406 12.410156 M 3.640625 11.921875 L 3.640625 6.738281 C 5.769531 6.722656 7.492188 7.085938 7.492188 9.335938 C 7.492188 10.917969 6.648438 11.921875 4.941406 11.921875 Z M 3.640625 6.1875 L 3.640625 1.472656 L 4.15625 1.472656 C 5.800781 1.472656 6.8125 2.066406 6.8125 3.863281 C 6.832031 4.238281 6.761719 4.597656 6.597656 4.933594 C 6.433594 5.273438 6.199219 5.550781 5.890625 5.765625 C 5.449219 6.0625 4.960938 6.203125 4.425781 6.191406 Z M 17.539062 10.78125 C 17.582031 10.660156 17.566406 10.398438 17.492188 10.476562 C 17.144531 10.835938 16.742188 11.101562 16.277344 11.28125 C 15.8125 11.460938 15.332031 11.53125 14.835938 11.496094 C 13.355469 11.496094 12.238281 10.292969 12.191406 7.921875 L 17.550781 7.921875 C 17.613281 5.503906 16.433594 4.085938 14.273438 4.085938 C 12.039062 4.085938 10.574219 5.835938 10.574219 8.453125 C 10.574219 10.949219 11.992188 12.605469 14.378906 12.605469 C 15.035156 12.617188 15.644531 12.460938 16.210938 12.132812 C 16.777344 11.804688 17.21875 11.355469 17.539062 10.78125 M 14.230469 4.53125 C 15.289062 4.53125 15.832031 5.441406 15.832031 7.328125 L 12.191406 7.464844 C 12.28125 5.425781 13.171875 4.527344 14.230469 4.527344 M 22.554688 12.605469 C 23.183594 12.625 23.773438 12.476562 24.320312 12.164062 C 24.871094 11.847656 25.296875 11.414062 25.605469 10.859375 C 25.632812 10.769531 25.574219 10.523438 25.542969 10.570312 C 24.871094 11.226562 24.066406 11.550781 23.125 11.542969 C 21.523438 11.542969 20.421875 10.265625 20.421875 8.011719 C 20.421875 5.777344 21.601562 4.636719 23.035156 4.636719 C 23.941406 4.636719 24.46875 5.109375 25.152344 5.671875 L 25.238281 5.671875 C 25.316406 5.261719 25.316406 4.851562 25.238281 4.4375 C 24.535156 4.183594 23.8125 4.070312 23.066406 4.105469 C 22.777344 4.105469 22.496094 4.132812 22.214844 4.191406 C 21.9375 4.25 21.664062 4.335938 21.402344 4.449219 C 21.140625 4.5625 20.890625 4.703125 20.65625 4.867188 C 20.421875 5.03125 20.207031 5.21875 20.011719 5.425781 C 19.8125 5.632812 19.640625 5.859375 19.488281 6.105469 C 19.335938 6.347656 19.210938 6.605469 19.113281 6.875 C 19.011719 7.144531 18.941406 7.421875 18.894531 7.703125 C 18.851562 7.988281 18.835938 8.273438 18.851562 8.5625 C 18.851562 10.964844 20.390625 12.605469 22.550781 12.605469 M 28.746094 12.605469 C 29.242188 12.613281 29.707031 12.492188 30.136719 12.238281 C 30.566406 11.984375 30.898438 11.636719 31.132812 11.191406 L 31.175781 11.191406 C 31.191406 11.207031 31.191406 11.421875 31.207031 11.4375 C 31.210938 11.605469 31.25 11.765625 31.320312 11.921875 C 31.390625 12.074219 31.488281 12.207031 31.617188 12.316406 C 31.742188 12.429688 31.886719 12.511719 32.046875 12.5625 C 32.207031 12.613281 32.371094 12.628906 32.535156 12.609375 C 33.027344 12.625 33.449219 12.464844 33.804688 12.121094 C 33.835938 12.089844 33.820312 11.773438 33.789062 11.785156 C 33.660156 11.839844 33.523438 11.867188 33.382812 11.863281 C 32.945312 11.863281 32.734375 11.757812 32.734375 11.101562 L 32.734375 6.25 C 32.734375 4.53125 31.40625 4.089844 29.5625 4.089844 C 28.726562 4.085938 27.914062 4.230469 27.132812 4.53125 C 27.078125 4.929688 27.078125 5.332031 27.132812 5.734375 L 27.222656 5.734375 C 27.8125 5.0625 28.554688 4.703125 29.441406 4.652344 C 30.664062 4.652344 31.101562 5.0625 31.101562 6.417969 L 31.101562 7.101562 C 31.101562 7.558594 30.800781 7.769531 30.347656 7.96875 C 29.5625 8.316406 28.671875 8.578125 28.25 8.730469 C 27.402344 9.003906 26.675781 9.460938 26.675781 10.628906 C 26.675781 11.984375 27.582031 12.605469 28.746094 12.605469 M 29.472656 11.800781 C 28.6875 11.800781 28.261719 11.332031 28.261719 10.402344 C 28.230469 10.0625 28.304688 9.75 28.492188 9.464844 C 28.679688 9.179688 28.9375 8.984375 29.257812 8.882812 C 29.515625 8.761719 30.121094 8.578125 30.542969 8.394531 C 30.753906 8.320312 30.941406 8.207031 31.101562 8.046875 L 31.101562 10.734375 C 30.953125 11.054688 30.730469 11.3125 30.4375 11.503906 C 30.144531 11.695312 29.820312 11.792969 29.46875 11.800781 M 37.824219 12.605469 C 38.871094 12.550781 39.730469 12.121094 40.40625 11.3125 L 40.46875 11.3125 L 40.484375 12.46875 C 40.484375 12.5 40.574219 12.578125 40.601562 12.578125 C 41.570312 12.378906 42.070312 12.332031 43.023438 12.195312 C 43.066406 12.195312 43.066406 11.890625 43.039062 11.890625 C 42.585938 11.816406 42.539062 11.785156 42.039062 11.695312 C 42.039062 11.558594 42.027344 9.929688 42.027344 9.792969 L 42.027344 4.273438 L 39.59375 4.273438 C 39.546875 4.273438 39.53125 4.589844 39.5625 4.589844 C 39.894531 4.621094 40.121094 4.652344 40.363281 4.699219 C 40.378906 4.804688 40.394531 6.355469 40.394531 6.492188 L 40.394531 10.859375 C 39.914062 11.386719 39.320312 11.644531 38.613281 11.632812 C 37.402344 11.632812 36.980469 11.027344 36.980469 9.730469 L 36.980469 4.273438 L 34.578125 4.273438 C 34.535156 4.273438 34.503906 4.589844 34.546875 4.589844 C 34.878906 4.621094 35.078125 4.652344 35.332031 4.699219 C 35.332031 4.804688 35.347656 6.265625 35.347656 6.402344 L 35.347656 10.191406 C 35.347656 11.785156 36.34375 12.609375 37.824219 12.609375 M 46.542969 12.609375 C 48.007812 12.609375 49.472656 11.863281 49.472656 10.054688 C 49.472656 8.714844 48.261719 8.121094 47.039062 7.511719 C 45.984375 6.980469 45.394531 6.765625 45.394531 5.824219 C 45.394531 5.050781 46.027344 4.609375 46.859375 4.609375 C 47.289062 4.597656 47.6875 4.699219 48.0625 4.914062 C 48.4375 5.125 48.730469 5.417969 48.945312 5.792969 L 49.019531 5.792969 C 49.058594 5.367188 49.058594 4.941406 49.019531 4.515625 C 48.339844 4.1875 47.625 4.046875 46.875 4.089844 C 45.515625 4.089844 44.125 4.867188 44.125 6.480469 C 44.125 7.863281 45.078125 8.488281 45.984375 8.917969 C 47.359375 9.554688 48.097656 9.890625 48.097656 10.800781 C 48.097656 11.804688 47.507812 12.09375 46.527344 12.09375 C 45.441406 12.09375 44.820312 11.457031 44.171875 10.710938 L 44.066406 10.710938 C 44 11.167969 43.996094 11.628906 44.050781 12.089844 C 44.835938 12.464844 45.667969 12.640625 46.542969 12.605469 M 57.707031 10.78125 C 57.75 10.660156 57.734375 10.398438 57.660156 10.476562 C 57.3125 10.835938 56.910156 11.101562 56.445312 11.28125 C 55.980469 11.460938 55.5 11.53125 55.003906 11.496094 C 53.523438 11.496094 52.40625 10.292969 52.359375 7.921875 L 57.722656 7.921875 C 57.785156 5.503906 56.605469 4.085938 54.445312 4.085938 C 52.210938 4.085938 50.746094 5.835938 50.746094 8.453125 C 50.746094 10.949219 52.164062 12.605469 54.550781 12.605469 C 55.203125 12.617188 55.8125 12.460938 56.378906 12.132812 C 56.945312 11.804688 57.390625 11.355469 57.710938 10.78125 M 54.398438 4.53125 C 55.457031 4.53125 56.003906 5.441406 56.003906 7.328125 L 52.359375 7.464844 C 52.449219 5.425781 53.34375 4.527344 54.398438 4.527344 M 62 12.40625 L 65.214844 12.40625 C 65.257812 12.304688 65.265625 12.195312 65.246094 12.085938 C 64.914062 12.058594 64.671875 12.027344 64.414062 11.980469 L 64.414062 2.050781 C 64.414062 1.824219 64.445312 0.867188 64.445312 0.726562 C 64.445312 0.699219 64.324219 0.621094 64.3125 0.621094 C 63.539062 0.851562 63.027344 0.957031 62.015625 1.214844 C 61.96875 1.230469 61.984375 1.488281 62 1.488281 C 62.265625 1.539062 62.53125 1.609375 62.785156 1.699219 C 62.800781 2.371094 62.816406 2.996094 62.816406 3.648438 L 62.816406 10.355469 C 62.816406 10.996094 62.816406 11.484375 62.800781 11.96875 L 62.027344 12.089844 C 61.988281 12.191406 61.976562 12.300781 61.996094 12.410156 M 66.363281 12.410156 L 69.566406 12.410156 C 69.605469 12.304688 69.617188 12.199219 69.597656 12.089844 C 69.261719 12.058594 69.039062 12.027344 68.78125 11.984375 L 68.78125 5.472656 C 68.78125 5.230469 68.808594 4.273438 68.808594 4.152344 C 68.808594 4.105469 68.691406 4.042969 68.675781 4.042969 C 67.90625 4.242188 67.390625 4.378906 66.378906 4.621094 C 66.335938 4.621094 66.351562 4.894531 66.363281 4.894531 C 66.628906 4.953125 66.890625 5.023438 67.152344 5.109375 C 67.164062 5.777344 67.179688 6.402344 67.179688 7.054688 L 67.179688 10.355469 C 67.179688 10.996094 67.179688 11.484375 67.164062 11.96875 L 66.394531 12.089844 C 66.355469 12.195312 66.34375 12.300781 66.363281 12.410156 M 67.964844 2.949219 C 68.21875 2.945312 68.433594 2.851562 68.609375 2.667969 C 68.789062 2.484375 68.875 2.265625 68.871094 2.011719 C 68.871094 1.757812 68.777344 1.539062 68.597656 1.359375 C 68.417969 1.179688 68.199219 1.089844 67.945312 1.09375 C 67.691406 1.09375 67.476562 1.183594 67.296875 1.367188 C 67.117188 1.546875 67.03125 1.765625 67.03125 2.019531 C 67.03125 2.277344 67.125 2.5 67.304688 2.679688 C 67.488281 2.859375 67.707031 2.949219 67.964844 2.949219 M 83 10.78125 C 83.046875 10.660156 83.03125 10.398438 82.957031 10.476562 C 82.609375 10.835938 82.203125 11.101562 81.738281 11.28125 C 81.273438 11.460938 80.792969 11.53125 80.296875 11.496094 C 78.816406 11.496094 77.699219 10.292969 77.652344 7.921875 L 83.015625 7.921875 C 83.078125 5.503906 81.898438 4.085938 79.738281 4.085938 C 77.503906 4.085938 76.035156 5.835938 76.035156 8.453125 C 76.035156 10.949219 77.457031 12.605469 79.84375 12.605469 C 80.496094 12.617188 81.105469 12.460938 81.671875 12.132812 C 82.238281 11.804688 82.679688 11.355469 83 10.78125 M 79.691406 4.53125 C 80.75 4.53125 81.292969 5.441406 81.292969 7.328125 L 77.652344 7.464844 C 77.742188 5.425781 78.636719 4.527344 79.691406 4.527344 " fill-opacity="1" fill-rule="nonzero"/></g><g clip-path="url(#b793cc8491)"><path fill="#000000" d="M 73.398438 4.046875 L 75.429688 4.046875 C 75.433594 4.289062 75.394531 4.523438 75.304688 4.75 L 73.398438 4.75 L 73.398438 11.957031 C 73.753906 12 74.019531 12.050781 74.375 12.082031 C 74.394531 12.195312 74.386719 12.304688 74.34375 12.410156 L 70.867188 12.410156 C 70.84375 12.296875 70.855469 12.1875 70.898438 12.082031 L 71.6875 11.957031 C 71.703125 11.457031 71.71875 10.972656 71.703125 10.28125 L 71.703125 4.75 L 70.617188 4.75 C 70.585938 4.621094 70.585938 4.488281 70.617188 4.359375 L 71.703125 3.996094 L 71.703125 3.421875 C 71.703125 1.261719 73.226562 0.277344 74.902344 0.277344 C 75.238281 0.273438 75.570312 0.3125 75.894531 0.386719 C 75.960938 0.757812 75.960938 1.128906 75.894531 1.496094 L 75.820312 1.496094 C 75.503906 1.101562 75.09375 0.894531 74.59375 0.871094 C 73.941406 0.871094 73.398438 1.339844 73.398438 2.40625 Z M 73.398438 4.046875 " fill-opacity="1" fill-rule="nonzero"/></g><path fill="#000000" d="M 132.582031 4.351562 C 132.582031 4.324219 132.417969 4.238281 132.402344 4.238281 C 131.472656 4.484375 131.214844 4.5625 130.136719 4.824219 C 130.089844 4.835938 130.105469 5.113281 130.121094 5.113281 C 130.390625 5.164062 130.652344 5.234375 130.910156 5.328125 C 130.925781 6.003906 130.941406 6.628906 130.941406 7.289062 L 130.941406 10.597656 C 130.941406 11.242188 130.941406 11.746094 130.925781 12.238281 L 130.152344 12.359375 C 130.109375 12.464844 130.101562 12.570312 130.121094 12.683594 L 133.5 12.683594 C 133.539062 12.578125 133.550781 12.472656 133.527344 12.359375 C 133.207031 12.316406 132.84375 12.285156 132.585938 12.238281 Z M 135.484375 4.363281 L 135.484375 6.320312 C 135.484375 6.402344 135.441406 6.441406 135.363281 6.441406 L 133.160156 6.441406 C 133.105469 6.441406 133.066406 6.414062 133.046875 6.363281 C 133.027344 6.308594 133.039062 6.261719 133.078125 6.226562 L 135.28125 4.269531 C 135.320312 4.234375 135.363281 4.226562 135.410156 4.25 C 135.460938 4.269531 135.484375 4.308594 135.484375 4.359375 M 90.710938 12.34375 C 90.457031 12.320312 90.203125 12.285156 89.949219 12.234375 L 89.949219 5.984375 C 90.53125 5.472656 91.207031 5.226562 91.976562 5.246094 C 93.0625 5.246094 93.351562 5.785156 93.351562 6.980469 L 93.351562 10.589844 C 93.351562 11.234375 93.351562 11.679688 93.335938 12.214844 L 92.574219 12.339844 C 92.53125 12.445312 92.523438 12.550781 92.542969 12.660156 L 95.730469 12.660156 C 95.761719 12.660156 95.808594 12.339844 95.761719 12.339844 C 95.457031 12.308594 95.242188 12.277344 94.984375 12.230469 L 94.984375 6.582031 C 94.984375 6.382812 94.96875 6.183594 94.953125 6.015625 C 95.542969 5.480469 96.234375 5.226562 97.027344 5.246094 C 98.109375 5.246094 98.398438 5.785156 98.398438 6.980469 L 98.398438 10.589844 C 98.398438 11.234375 98.398438 11.679688 98.382812 12.21875 L 97.621094 12.339844 C 97.582031 12.445312 97.570312 12.550781 97.59375 12.664062 L 100.796875 12.664062 C 100.824219 12.664062 100.871094 12.339844 100.824219 12.339844 C 100.503906 12.308594 100.292969 12.28125 100.03125 12.234375 L 100.03125 6.582031 C 100.03125 4.863281 99.332031 4.277344 97.957031 4.277344 C 96.785156 4.304688 95.773438 4.722656 94.925781 5.539062 L 94.863281 5.539062 C 94.617188 4.617188 93.964844 4.277344 92.910156 4.277344 C 91.753906 4.304688 90.761719 4.722656 89.9375 5.539062 L 89.875 5.539062 L 89.90625 4.324219 C 89.90625 4.292969 89.785156 4.21875 89.769531 4.21875 C 88.839844 4.449219 88.578125 4.539062 87.496094 4.800781 C 87.449219 4.800781 87.464844 5.078125 87.480469 5.078125 C 87.75 5.136719 88.011719 5.207031 88.273438 5.292969 C 88.289062 5.96875 88.304688 6.601562 88.304688 7.257812 L 88.304688 10.589844 C 88.304688 11.234375 88.304688 11.726562 88.289062 12.21875 L 87.511719 12.339844 C 87.46875 12.445312 87.460938 12.554688 87.480469 12.664062 L 90.699219 12.664062 C 90.714844 12.664062 90.757812 12.339844 90.714844 12.339844 M 103.949219 12.863281 C 104.453125 12.871094 104.921875 12.746094 105.355469 12.488281 C 105.785156 12.234375 106.121094 11.882812 106.359375 11.433594 L 106.40625 11.433594 C 106.417969 11.449219 106.417969 11.664062 106.4375 11.679688 C 106.441406 11.851562 106.476562 12.015625 106.550781 12.167969 C 106.621094 12.324219 106.71875 12.457031 106.847656 12.570312 C 106.976562 12.679688 107.121094 12.761719 107.28125 12.8125 C 107.441406 12.867188 107.609375 12.882812 107.777344 12.863281 C 108.273438 12.882812 108.699219 12.71875 109.058594 12.371094 C 109.089844 12.339844 109.074219 12.019531 109.042969 12.035156 C 108.910156 12.085938 108.773438 12.113281 108.628906 12.109375 C 108.1875 12.109375 107.976562 12.003906 107.976562 11.34375 L 107.976562 6.445312 C 107.976562 4.710938 106.632812 4.261719 104.773438 4.261719 C 103.925781 4.257812 103.109375 4.40625 102.316406 4.710938 C 102.265625 5.113281 102.265625 5.519531 102.316406 5.921875 L 102.40625 5.921875 C 103.003906 5.246094 103.75 4.882812 104.648438 4.832031 C 105.882812 4.832031 106.324219 5.246094 106.324219 6.613281 L 106.324219 7.304688 C 106.324219 7.765625 106.019531 7.980469 105.5625 8.179688 C 104.769531 8.53125 103.871094 8.792969 103.441406 8.945312 C 102.589844 9.222656 101.855469 9.683594 101.855469 10.867188 C 101.855469 12.234375 102.773438 12.863281 103.945312 12.863281 M 104.679688 12.046875 C 103.886719 12.046875 103.457031 11.574219 103.457031 10.636719 C 103.425781 10.292969 103.503906 9.976562 103.691406 9.691406 C 103.878906 9.402344 104.136719 9.207031 104.464844 9.101562 C 104.722656 8.980469 105.332031 8.792969 105.761719 8.609375 C 105.976562 8.535156 106.167969 8.417969 106.328125 8.257812 L 106.328125 10.976562 C 106.175781 11.296875 105.953125 11.558594 105.65625 11.75 C 105.359375 11.945312 105.035156 12.042969 104.679688 12.050781 M 112.808594 12.863281 C 113.21875 12.886719 113.609375 12.808594 113.980469 12.636719 C 114.355469 12.460938 114.664062 12.210938 114.910156 11.878906 C 114.941406 11.820312 114.910156 11.527344 114.882812 11.542969 C 114.472656 11.8125 114.027344 11.953125 113.539062 11.972656 C 112.667969 11.972656 112.378906 11.433594 112.378906 10.621094 L 112.378906 5.136719 L 114.710938 5.136719 C 114.789062 5.136719 114.878906 4.449219 114.800781 4.449219 L 112.390625 4.449219 C 112.390625 4.324219 112.4375 2.898438 112.4375 2.789062 C 112.4375 2.710938 112.160156 2.652344 112.101562 2.710938 C 111.949219 2.882812 110.132812 4.433594 109.523438 4.878906 C 109.460938 4.921875 109.492188 5.136719 109.523438 5.136719 L 110.757812 5.136719 L 110.757812 10.742188 C 110.757812 12.035156 111.261719 12.863281 112.804688 12.863281 M 118.917969 12.863281 C 119.328125 12.886719 119.71875 12.8125 120.09375 12.636719 C 120.464844 12.464844 120.773438 12.210938 121.023438 11.878906 C 121.054688 11.820312 121.023438 11.527344 120.992188 11.542969 C 120.585938 11.8125 120.136719 11.957031 119.648438 11.972656 C 118.777344 11.972656 118.492188 11.4375 118.492188 10.621094 L 118.492188 5.136719 L 120.824219 5.136719 C 120.898438 5.136719 120.992188 4.449219 120.914062 4.449219 L 118.503906 4.449219 C 118.503906 4.324219 118.550781 2.898438 118.550781 2.789062 C 118.550781 2.710938 118.273438 2.652344 118.214844 2.710938 C 118.0625 2.882812 116.25 4.433594 115.636719 4.878906 C 115.578125 4.921875 115.605469 5.136719 115.636719 5.136719 L 116.871094 5.136719 L 116.871094 10.742188 C 116.871094 12.035156 117.375 12.863281 118.917969 12.863281 M 128.917969 11.019531 C 128.964844 10.898438 128.953125 10.636719 128.875 10.714844 C 128.523438 11.074219 128.113281 11.347656 127.644531 11.527344 C 127.175781 11.707031 126.691406 11.777344 126.191406 11.742188 C 124.695312 11.742188 123.566406 10.53125 123.523438 8.136719 L 128.9375 8.136719 C 128.996094 5.695312 127.808594 4.265625 125.625 4.265625 C 123.371094 4.265625 121.890625 6.03125 121.890625 8.671875 C 121.890625 11.191406 123.324219 12.863281 125.734375 12.863281 C 126.394531 12.875 127.007812 12.71875 127.578125 12.386719 C 128.152344 12.054688 128.597656 11.601562 128.921875 11.019531 M 125.582031 4.710938 C 126.648438 4.710938 127.199219 5.632812 127.199219 7.535156 L 123.523438 7.675781 C 123.613281 5.617188 124.515625 4.710938 125.585938 4.710938 M 139.082031 12.863281 C 140.558594 12.863281 142.039062 12.113281 142.039062 10.285156 C 142.039062 8.929688 140.820312 8.335938 139.582031 7.71875 C 138.515625 7.183594 137.921875 6.96875 137.921875 6.015625 C 137.921875 5.234375 138.5625 4.785156 139.402344 4.785156 C 139.832031 4.777344 140.238281 4.878906 140.617188 5.09375 C 140.992188 5.308594 141.289062 5.605469 141.503906 5.984375 L 141.582031 5.984375 C 141.621094 5.554688 141.621094 5.125 141.582031 4.695312 C 140.898438 4.363281 140.175781 4.21875 139.417969 4.265625 C 138.042969 4.265625 136.640625 5.046875 136.640625 6.675781 C 136.640625 8.074219 137.601562 8.703125 138.515625 9.132812 C 139.902344 9.777344 140.648438 10.113281 140.648438 11.035156 C 140.648438 12.050781 140.054688 12.34375 139.0625 12.34375 C 137.96875 12.34375 137.339844 11.699219 136.683594 10.945312 L 136.578125 10.945312 C 136.511719 11.410156 136.507812 11.878906 136.5625 12.34375 C 137.359375 12.726562 138.199219 12.898438 139.078125 12.867188 M 149.554688 12.34375 C 149.300781 12.324219 149.046875 12.285156 148.792969 12.234375 L 148.792969 5.984375 C 149.375 5.472656 150.050781 5.226562 150.820312 5.246094 C 151.90625 5.246094 152.195312 5.785156 152.195312 6.980469 L 152.195312 10.589844 C 152.195312 11.234375 152.195312 11.679688 152.179688 12.214844 L 151.417969 12.339844 C 151.375 12.445312 151.367188 12.550781 151.386719 12.660156 L 154.574219 12.660156 C 154.601562 12.660156 154.648438 12.339844 154.601562 12.339844 C 154.300781 12.308594 154.085938 12.277344 153.828125 12.230469 L 153.828125 6.582031 C 153.828125 6.382812 153.8125 6.183594 153.796875 6.015625 C 154.386719 5.480469 155.078125 5.226562 155.871094 5.246094 C 156.953125 5.246094 157.242188 5.785156 157.242188 6.980469 L 157.242188 10.589844 C 157.242188 11.234375 157.242188 11.679688 157.226562 12.21875 L 156.464844 12.339844 C 156.425781 12.445312 156.414062 12.550781 156.433594 12.664062 L 159.636719 12.664062 C 159.667969 12.664062 159.714844 12.339844 159.667969 12.339844 C 159.347656 12.308594 159.136719 12.28125 158.875 12.234375 L 158.875 6.582031 C 158.875 4.863281 158.175781 4.277344 156.800781 4.277344 C 155.628906 4.304688 154.617188 4.722656 153.765625 5.539062 L 153.707031 5.539062 C 153.460938 4.617188 152.804688 4.277344 151.753906 4.277344 C 150.597656 4.304688 149.605469 4.722656 148.78125 5.539062 L 148.71875 5.539062 L 148.75 4.324219 C 148.75 4.292969 148.628906 4.21875 148.613281 4.21875 C 147.683594 4.449219 147.425781 4.539062 146.34375 4.800781 C 146.296875 4.800781 146.3125 5.078125 146.328125 5.078125 C 146.59375 5.136719 146.859375 5.207031 147.121094 5.292969 C 147.136719 5.96875 147.152344 6.601562 147.152344 7.257812 L 147.152344 10.589844 C 147.152344 11.234375 147.152344 11.726562 147.136719 12.21875 L 146.355469 12.339844 C 146.316406 12.445312 146.304688 12.554688 146.328125 12.664062 L 149.542969 12.664062 C 149.558594 12.664062 149.605469 12.339844 149.558594 12.339844 M 164.886719 12.863281 C 167.097656 12.863281 168.867188 11.234375 168.867188 8.503906 C 168.867188 5.785156 167.019531 4.261719 164.808594 4.261719 C 162.613281 4.261719 160.84375 5.875 160.84375 8.609375 C 160.84375 11.339844 162.675781 12.863281 164.886719 12.863281 M 164.886719 12.402344 C 163.484375 12.402344 162.566406 11.464844 162.566406 8.515625 C 162.566406 5.722656 163.484375 4.722656 164.808594 4.722656 C 166.210938 4.722656 167.125 5.644531 167.125 8.59375 C 167.125 11.402344 166.210938 12.402344 164.882812 12.402344 M 172.554688 12.863281 C 174.03125 12.863281 175.511719 12.109375 175.511719 10.28125 C 175.511719 8.929688 174.289062 8.332031 173.054688 7.71875 C 171.988281 7.179688 171.394531 6.964844 171.394531 6.011719 C 171.394531 5.230469 172.035156 4.785156 172.871094 4.785156 C 173.304688 4.777344 173.710938 4.878906 174.085938 5.09375 C 174.464844 5.308594 174.761719 5.605469 174.976562 5.984375 L 175.054688 5.984375 C 175.089844 5.554688 175.089844 5.125 175.054688 4.695312 C 174.367188 4.363281 173.644531 4.21875 172.886719 4.261719 C 171.515625 4.261719 170.109375 5.046875 170.109375 6.671875 C 170.109375 8.070312 171.070312 8.699219 171.984375 9.128906 C 173.375 9.777344 174.121094 10.113281 174.121094 11.035156 C 174.121094 12.046875 173.527344 12.34375 172.535156 12.34375 C 171.4375 12.34375 170.8125 11.695312 170.15625 10.945312 L 170.046875 10.945312 C 169.980469 11.410156 169.976562 11.875 170.03125 12.34375 C 170.828125 12.722656 171.667969 12.898438 172.550781 12.863281 M 179.550781 12.863281 C 179.960938 12.886719 180.351562 12.8125 180.722656 12.636719 C 181.097656 12.464844 181.40625 12.210938 181.65625 11.882812 C 181.683594 11.820312 181.65625 11.527344 181.625 11.542969 C 181.214844 11.8125 180.769531 11.957031 180.28125 11.972656 C 179.410156 11.972656 179.121094 11.4375 179.121094 10.621094 L 179.121094 5.136719 L 181.457031 5.136719 C 181.53125 5.136719 181.625 4.449219 181.542969 4.449219 L 179.136719 4.449219 C 179.136719 4.324219 179.179688 2.898438 179.179688 2.789062 C 179.179688 2.710938 178.90625 2.652344 178.84375 2.710938 C 178.691406 2.882812 176.875 4.433594 176.269531 4.878906 C 176.207031 4.921875 176.238281 5.136719 176.269531 5.136719 L 177.503906 5.136719 L 177.503906 10.742188 C 177.503906 12.035156 178.007812 12.863281 179.546875 12.863281 M 184.027344 12.789062 C 184.28125 12.785156 184.496094 12.695312 184.675781 12.515625 C 184.855469 12.335938 184.941406 12.121094 184.945312 11.863281 C 184.941406 11.613281 184.851562 11.398438 184.671875 11.21875 C 184.496094 11.042969 184.28125 10.957031 184.027344 10.960938 C 183.78125 10.960938 183.574219 11.050781 183.398438 11.226562 C 183.226562 11.402344 183.140625 11.617188 183.144531 11.863281 C 183.140625 12.113281 183.226562 12.332031 183.398438 12.511719 C 183.570312 12.691406 183.78125 12.78125 184.027344 12.789062 " fill-opacity="1" fill-rule="nonzero"/><g clip-path="url(#b5739601c6)"><path fill="#000000" d="M 183.164062 68.464844 C 182.671875 68.460938 182.199219 68.359375 181.746094 68.164062 C 181.296875 67.96875 180.898438 67.695312 180.554688 67.339844 C 180.207031 66.988281 179.945312 66.582031 179.761719 66.121094 C 179.574219 65.664062 179.484375 65.1875 179.488281 64.691406 C 179.488281 64.195312 179.585938 63.722656 179.773438 63.265625 C 179.964844 62.808594 180.234375 62.402344 180.582031 62.054688 C 180.929688 61.703125 181.328125 61.433594 181.78125 61.242188 C 182.238281 61.054688 182.710938 60.957031 183.199219 60.957031 C 183.441406 60.953125 183.679688 60.976562 183.917969 61.019531 C 184.15625 61.066406 184.386719 61.136719 184.609375 61.230469 C 184.832031 61.324219 185.042969 61.4375 185.242188 61.574219 C 185.441406 61.710938 185.625 61.867188 185.792969 62.039062 C 185.964844 62.214844 186.113281 62.402344 186.242188 62.609375 C 186.375 62.8125 186.484375 63.027344 186.570312 63.253906 C 186.65625 63.480469 186.722656 63.714844 186.761719 63.953125 C 186.800781 64.191406 186.820312 64.433594 186.808594 64.675781 C 186.820312 65.171875 186.734375 65.652344 186.554688 66.113281 C 186.375 66.574219 186.113281 66.980469 185.769531 67.335938 C 185.429688 67.695312 185.03125 67.96875 184.578125 68.164062 C 184.125 68.359375 183.65625 68.460938 183.164062 68.464844 Z M 183.199219 61.644531 C 182.808594 61.664062 182.433594 61.753906 182.078125 61.914062 C 181.71875 62.078125 181.40625 62.300781 181.132812 62.582031 C 180.863281 62.867188 180.652344 63.191406 180.503906 63.558594 C 180.355469 63.921875 180.28125 64.304688 180.28125 64.699219 C 180.277344 65.09375 180.347656 65.472656 180.492188 65.839844 C 180.632812 66.207031 180.839844 66.535156 181.109375 66.820312 C 181.375 67.109375 181.6875 67.335938 182.042969 67.503906 C 182.398438 67.671875 182.769531 67.765625 183.164062 67.785156 C 184.832031 67.785156 186.027344 66.359375 186.027344 64.675781 C 186.046875 64.285156 185.992188 63.90625 185.855469 63.535156 C 185.722656 63.167969 185.523438 62.839844 185.253906 62.554688 C 184.988281 62.269531 184.675781 62.046875 184.320312 61.886719 C 183.964844 61.730469 183.589844 61.648438 183.199219 61.644531 Z M 184.050781 66.472656 L 182.855469 64.648438 L 182.75 64.648438 L 182.75 66.074219 L 183.230469 66.300781 L 183.230469 66.476562 L 181.425781 66.476562 L 181.425781 66.300781 L 181.910156 66.074219 L 181.910156 63.035156 L 181.425781 62.808594 L 181.425781 62.636719 L 183.28125 62.636719 C 183.925781 62.636719 184.582031 62.792969 184.582031 63.585938 C 184.589844 63.839844 184.511719 64.058594 184.351562 64.25 C 184.191406 64.441406 183.988281 64.554688 183.742188 64.589844 L 184.765625 66.078125 L 185.238281 66.300781 L 185.238281 66.476562 Z M 183.039062 62.917969 L 182.75 62.917969 L 182.75 64.414062 L 183.058594 64.414062 C 183.453125 64.414062 183.675781 64.132812 183.675781 63.628906 C 183.671875 63.199219 183.5 62.917969 183.035156 62.917969 Z M 183.039062 62.917969 " fill-opacity="1" fill-rule="nonzero"/></g></svg>